HIERARCHY
ROOT hip
{
  OFFSET 0 0 0
  CHANNELS 6 Xposition Yposition Zposition Zrotation Yrotation Xrotation
  JOINT abdomen
  {
    OFFSET 0 20.6881 -0.73152
    CHANNELS 3 Zrotation Xrotation Yrotation
    JOINT chest
    {
      OFFSET 0 11.7043 -0.48768
      CHANNELS 3 Zrotation Xrotation Yrotation
      JOINT neck
      {
        OFFSET 0 22.1894 -2.19456
        CHANNELS 3 Zrotation Xrotation Yrotation
        JOINT head
        {
          OFFSET -0.24384 7.07133 1.2192
          CHANNELS 3 Zrotation Xrotation Yrotation
          JOINT leftEye
          {
            OFFSET 4.14528 8.04674 8.04672
            CHANNELS 3 Zrotation Xrotation Yrotation
            End Site
            {
              OFFSET 1 0 0
            }
          }
          JOINT rightEye
          {
            OFFSET -3.6576 8.04674 8.04672
            CHANNELS 3 Zrotation Xrotation Yrotation
            End Site
            {
              OFFSET 1 0 0
            }
          }
        }
      }
      JOINT rCollar
      {
        OFFSET -2.68224 19.2634 -4.8768
        CHANNELS 3 Zrotation Xrotation Yrotation
        JOINT rShldr
        {
          OFFSET -8.77824 -1.95073 1.46304
          CHANNELS 3 Zrotation Xrotation Yrotation
          JOINT rForeArm
          {
            OFFSET -28.1742 -1.7115 0.48768
            CHANNELS 3 Zrotation Xrotation Yrotation
            JOINT rHand
            {
              OFFSET -22.5879 0.773209 7.07136
              CHANNELS 3 Zrotation Xrotation Yrotation
              JOINT rThumb1
              {
                OFFSET -1.2192 -0.487915 3.41376
                CHANNELS 3 Zrotation Xrotation Yrotation
                JOINT rThumb2
                {
                  OFFSET -3.37035 -0.52449 3.41376
                  CHANNELS 3 Zrotation Xrotation Yrotation
                  End Site
                  {
                    OFFSET -1.78271 -1.18214 1.43049
                  }
                }
              }
              JOINT rIndex1
              {
                OFFSET -7.75947 0.938293 5.60832
                CHANNELS 3 Zrotation Xrotation Yrotation
                JOINT rIndex2
                {
                  OFFSET -2.54057 -0.884171 1.56538
                  CHANNELS 3 Zrotation Xrotation Yrotation
                  End Site
                  {
                    OFFSET -1.62519 -0.234802 1.16502
                  }
                }
              }
              JOINT rMid1
              {
                OFFSET -8.24714 1.18213 3.41376
                CHANNELS 3 Zrotation Xrotation Yrotation
                JOINT rMid2
                {
                  OFFSET -3.10165 -0.590103 1.0647
                  CHANNELS 3 Zrotation Xrotation Yrotation
                  End Site
                  {
                    OFFSET -2.48547 -0.328903 0.83742
                  }
                }
              }
              JOINT rRing1
              {
                OFFSET -8.82822 0.546677 1.51678
                CHANNELS 3 Zrotation Xrotation Yrotation
                JOINT rRing2
                {
                  OFFSET -2.60934 -0.819778 -0.0198488
                  CHANNELS 3 Zrotation Xrotation Yrotation
                  End Site
                  {
                    OFFSET -2.33842 -0.294052 0.168128
                  }
                }
              }
              JOINT rPinky1
              {
                OFFSET -8.27202 -0.0477905 -0.4584
                CHANNELS 3 Zrotation Xrotation Yrotation
                JOINT rPinky2
                {
                  OFFSET -1.82734 -0.647385 -0.700984
                  CHANNELS 3 Zrotation Xrotation Yrotation
                  End Site
                  {
                    OFFSET -1.69225 -0.51767 -0.607171
                  }
                }
              }
            }
          }
        }
      }
      JOINT lCollar
      {
        OFFSET 2.68224 19.2634 -4.8768
        CHANNELS 3 Zrotation Xrotation Yrotation
        JOINT lShldr
        {
          OFFSET 8.77824 -1.95073 1.46304
          CHANNELS 3 Zrotation Xrotation Yrotation
          JOINT lForeArm
          {
            OFFSET 28.1742 -1.7115 0.48768
            CHANNELS 3 Zrotation Xrotation Yrotation
            JOINT lHand
            {
              OFFSET 22.5879 0.773209 7.07136
              CHANNELS 3 Zrotation Xrotation Yrotation
              JOINT lThumb1
              {
                OFFSET 1.2192 -0.487915 3.41376
                CHANNELS 3 Zrotation Xrotation Yrotation
                JOINT lThumb2
                {
                  OFFSET 3.37035 -0.52449 3.41376
                  CHANNELS 3 Zrotation Xrotation Yrotation
                  End Site
                  {
                    OFFSET 1.78271 -1.18214 1.43049
                  }
                }
              }
              JOINT lIndex1
              {
                OFFSET 7.75947 0.938293 5.60832
                CHANNELS 3 Zrotation Xrotation Yrotation
                JOINT lIndex2
                {
                  OFFSET 2.54057 -0.884171 1.56538
                  CHANNELS 3 Zrotation Xrotation Yrotation
                  End Site
                  {
                    OFFSET 1.62519 -0.234802 1.16502
                  }
                }
              }
              JOINT lMid1
              {
                OFFSET 8.24714 1.18213 3.41376
                CHANNELS 3 Zrotation Xrotation Yrotation
                JOINT lMid2
                {
                  OFFSET 3.10165 -0.590103 1.0647
                  CHANNELS 3 Zrotation Xrotation Yrotation
                  End Site
                  {
                    OFFSET 2.48547 -0.328903 0.83742
                  }
                }
              }
              JOINT lRing1
              {
                OFFSET 8.82822 0.546677 1.51678
                CHANNELS 3 Zrotation Xrotation Yrotation
                JOINT lRing2
                {
                  OFFSET 2.60934 -0.819778 -0.0198488
                  CHANNELS 3 Zrotation Xrotation Yrotation
                  End Site
                  {
                    OFFSET 2.33842 -0.294052 0.168128
                  }
                }
              }
              JOINT lPinky1
              {
                OFFSET 8.27202 -0.0477905 -0.4584
                CHANNELS 3 Zrotation Xrotation Yrotation
                JOINT lPinky2
                {
                  OFFSET 1.82734 -0.647385 -0.700984
                  CHANNELS 3 Zrotation Xrotation Yrotation
                  End Site
                  {
                    OFFSET 1.69225 -0.51767 -0.607171
                  }
                }
              }
            }
          }
        }
      }
    }
  }
  JOINT rButtock
  {
    OFFSET -8.77824 4.35084 1.2192
    CHANNELS 3 Zrotation Xrotation Yrotation
    JOINT rThigh
    {
      OFFSET 0 -1.70687 -2.19456
      CHANNELS 3 Zrotation Xrotation Yrotation
      JOINT rShin
      {
        OFFSET 0 -36.8199 0.73152
        CHANNELS 3 Zrotation Xrotation Yrotation
        JOINT rFoot
        {
          OFFSET 0.73152 -45.1104 -5.12064
          CHANNELS 3 Zrotation Xrotation Yrotation
          End Site
          {
            OFFSET -1.1221 -3.69964 12.103
          }
        }
      }
    }
  }
  JOINT lButtock
  {
    OFFSET 8.77824 4.35084 1.2192
    CHANNELS 3 Zrotation Xrotation Yrotation
    JOINT lThigh
    {
      OFFSET 0 -1.70687 -2.19456
      CHANNELS 3 Zrotation Xrotation Yrotation
      JOINT lShin
      {
        OFFSET 0 -36.8199 0.73152
        CHANNELS 3 Zrotation Xrotation Yrotation
        JOINT lFoot
        {
          OFFSET -0.73152 -45.1104 -5.12064
          CHANNELS 3 Zrotation Xrotation Yrotation
          End Site
          {
            OFFSET 1.1221 -3.69964 12.103
          }
        }
      }
    }
  }
}
MOTION
Frames:	8
Frame Time:	0.00833333
0.0 0.0 0.0 0.0 0.0 0.0 0.0 0.0 0.0 0.0 0.0 0.0 0.0 0.0 0.0 0.0 0.0 0.0 0.0 0.0 0.0 0.0 0.0 0.0 0.0 0.0 0.0 0.0 0.0 0.0 0.0 0.0 0.0 0.0 0.0 0.0 0.0 0.0 0.0 0.0 0.0 0.0 0.0 0.0 0.0 0.0 0.0 0.0 0.0 0.0 0.0 0.0 0.0 0.0 0.0 0.0 0.0 0.0 0.0 0.0 0.0 0.0 0.0 0.0 0.0 0.0 0.0 0.0 0.0 0.0 0.0 0.0 0.0 0.0 0.0 0.0 0.0 0.0 0.0 0.0 0.0 0.0 0.0 0.0 0.0 0.0 0.0 0.0 0.0 0.0 0.0 0.0 0.0 0.0 0.0 0.0 0.0 0.0 0.0 0.0 0.0 0.0 0.0 0.0 0.0 0.0 0.0 0.0 0.0 0.0 0.0 0.0 0.0 0.0 0.0 0.0 0.0 0.0 0.0 0.0 0.0 0.0 0.0 0.0 0.0 0.0 0.0 0.0 0.0 0.0 0.0 0.0
-0.0723 57.1048 0.20400000000000001 -6.299253 -21.614185 0.056871 -1.436663 11.11367 154.521966 -4.793584 7.8087 -135.907557 -11.447464 21.265378 -57.522049 36.15006 4.772871 84.424151 0.003862 -0.0 -0.004323 -0.001216 -0.0 0.001706 -155.417076 -2.951403 161.718683 -31.655507 -66.266444 12.136001 114.339338 79.504067 100.024124 -121.85083 43.580318 107.659082 -4.597645 4.470284 0.881722 149.122853 -80.903923 72.952456 -69.681969 43.292377 57.342447 79.51571 -63.251077 33.514695 -160.827724 -7.141576 143.316245 3.155403 0.178451 0.384324 -145.09785 -1.604555 -178.622735 -154.025069 -12.517216 -177.50452 -157.327598 57.245654 -150.516022 54.707773 82.590412 -18.176269 -4.239623 -44.742713 8.647994 39.94016 -82.255247 110.727713 138.019905 82.663616 132.655475 9.004871 47.593883 -5.133459 12.305644 11.514972 -3.094434 -44.683693 -54.551605 8.774875 156.46885 -26.6532 -122.370543 -82.924226 -69.138281 -30.240281 36.033557 51.724133 -29.831061 178.34489 -46.351898 -141.942717 145.099917 -1.523346 178.650315 154.034443 -12.518355 177.506973 -3.763056 10.729136 -3.41938 24.443356 -41.313393 24.925866 179.790514 75.750912 0.161464 157.603991 35.976704 13.239628 86.191135 68.141227 29.337712 -94.768293 -22.409619 -159.814466 -0.004225 -0.000701 -0.004225 61.160704 -38.129364 71.222394 22.837786 63.479568 -48.864611 -155.691288 -54.223093 -28.921563
-0.11030000000000001 57.1487 0.3154 -6.329737 -21.872811 0.146093 -0.364286 10.771498 -178.051551 0.462579 8.835434 -163.742119 -9.477426 31.420048 -119.981401 24.869906 37.139394 141.878997 0.000738 0.0 0.000783 0.000738 0.0 0.000783 0.022942 -0.138619 -0.031201 -110.55211 -17.032989 176.99553 33.068287 4.616505 -158.119514 -87.286313 49.321418 71.651611 -171.705387 -9.38874 89.948669 -103.485353 13.268257 44.086796 -151.353696 -17.157677 121.134465 3.642414 14.715649 -6.927379 -160.673299 -6.667753 143.245444 -168.891425 -21.695846 143.914281 0.004586 1.812329 0.569913 -23.52058 72.951517 36.402515 -8.190149 -17.576105 -7.729236 -146.253348 9.285685 -143.057251 155.574473 -3.976588 -161.936639 -154.783002 -16.158324 154.702979 116.865323 27.589235 -15.296234 -63.959538 -62.230753 -55.082904 -11.509184 -11.487031 0.621949 121.907068 -3.582329 -109.825173 27.609902 30.76579 -20.254874 -5.142126 3.925869 0.807187 39.290528 53.365584 -32.878281 170.063875 -26.021525 -144.190767 145.099937 -1.521895 178.650665 150.515029 -33.834442 173.361921 144.859593 11.080034 141.542214 142.455974 -1.916761 137.923636 0.0 0.000477 -0.001595 -22.474179 -35.349879 -13.833798 98.903695 77.795936 123.440155 16.134433 65.22908 104.129501 179.993719 75.749165 0.006481 -134.824935 10.29568 180.0 -0.617641 -68.023861 155.014044 62.49228 25.028825 -7.019458
-0.149 57.165200000000006 0.426 -6.360779 -22.148337 0.223182 -0.52065 15.447949 1.026151 -0.255674 -13.597359 17.280062 -5.458787 33.888105 -146.274111 8.842635 43.611062 172.749309 0.002844 -0.0 -0.000959 -0.002227 -0.0 0.005079 -14.147995 43.061522 15.996814 64.215621 -6.756418 38.64238 -177.451735 -27.008784 31.291797 -134.720391 35.800124 121.330015 93.028743 -51.084146 40.500482 -59.998223 30.596918 19.322634 24.074937 -42.306728 -5.558893 179.934666 -42.700364 105.178251 -8.416852 20.880314 5.645691 -163.180441 -4.725306 143.332571 0.00482 1.772466 0.55585 -156.710896 -30.812527 175.46544 -157.330365 57.24675 -150.510318 -148.248668 11.565117 -141.991582 69.037716 -86.842304 90.940259 -64.137604 23.44045 40.771127 6.390717 6.758564 -87.592704 6.542216 41.734339 -4.301512 171.603644 -9.285997 -89.950934 30.363228 -31.097451 -3.941706 -88.79183 -75.499625 -40.049933 128.130116 28.909149 -105.609721 0.057719 0.167901 -0.031688 42.067778 58.559635 -36.099806 145.11294 -0.627186 178.931234 152.212498 76.281403 -166.98227 -12.98514 44.344863 -10.761881 148.558993 13.062676 143.680091 -179.993337 75.749377 -0.005482 156.336186 34.266527 127.745844 87.30722 -46.141326 6.095379 85.602644 75.941479 173.020236 -179.993337 75.749377 -0.005482 -134.730158 12.619218 -0.0 -13.461465 71.351543 -82.682984 -1.99507 21.034282 99.324714
-0.1869 57.160999999999994 0.5312 -6.412905 -22.42421 0.315778 0.512759 15.171802 -23.668488 4.497696 -12.674868 42.429946 -5.540028 15.451587 -11.26424 22.281281 -18.254148 42.096968 0.000636 0.0 0.003317 2.1e-05 -0.0 -0.00198 2.460086 -18.216386 -3.668546 63.360019 19.558505 -12.463716 61.288115 59.7382 66.129572 -21.086534 -19.305577 -2.281338 -169.319542 -7.00105 89.921151 -121.628802 12.153404 57.338154 -160.014601 -33.01168 122.699492 -170.108947 -35.235521 117.55468 -159.365533 -2.685082 142.598705 167.293997 -63.978801 132.406056 -31.707973 -66.108912 -46.28351 -151.138826 -12.493949 176.683467 -85.999694 -50.499312 -84.371646 -156.267949 44.603639 -147.907391 155.80911 -5.555303 -162.267211 30.323365 19.126126 26.392318 63.461889 -19.470451 167.422094 -43.874148 -55.477997 -36.062707 -93.027824 -51.083806 -40.501748 90.822721 38.131671 -50.98155 -37.214286 -57.918295 0.643733 82.339496 50.642137 -68.723337 -0.047377 -0.138525 0.027805 17.944947 42.273795 -14.398859 69.296637 72.946627 -87.01698 105.936785 82.157102 -115.085979 149.901233 28.481742 145.832287 -6.450184 12.157567 -1.317138 179.980825 75.750044 0.015777 157.219645 36.127397 -0.0 124.428154 85.361004 51.99883 -124.849642 26.788648 -144.689028 -179.993658 75.748474 -0.004339 -134.612307 12.621869 -0.0 -13.417613 72.2509 -89.012772 114.131249 -38.743447 -150.515063
-0.22469999999999998 57.143699999999995 0.6338 -6.488048 -22.69072 0.438575 -0.444427 15.296558 -0.0 -0.054945 -13.600667 18.477648 2.014707 15.180426 29.466981 -2.83644 -24.502415 -3.276731 0.00061 0.0 0.002032 0.000131 -0.0 -1.8e-05 4.230578 -44.380029 -8.57506 -112.238631 -19.917541 -146.3749 15.501727 48.634396 -156.780107 -124.698852 42.216933 110.692256 171.559262 -25.004701 87.39178 -142.732256 14.581336 78.173017 -77.667469 43.029213 64.538547 7.912963 -3.073351 -4.794098 -161.520123 -9.303772 143.626458 -128.943792 51.842542 118.063363 -145.10863 3.677707 179.715352 11.158722 18.266875 -6.86364 32.022779 83.320319 6.223012 60.632171 84.371319 -23.746978 -4.225057 -44.09722 8.515014 106.824993 -6.60678 177.460829 4.593144 -5.196238 119.816232 -140.843047 -49.977739 -128.475956 -12.712372 -12.674371 0.551948 122.32612 -3.187219 -110.059225 46.20804 39.653268 -36.318105 -178.208133 -35.124643 -108.576591 160.993305 -7.659336 -143.391818 88.648433 63.696354 -80.362111 -0.003356 0.917663 -0.289132 155.486243 -1.10817 -171.980984 156.859082 55.541419 150.333184 170.362194 69.505875 144.427748 179.983238 75.749653 0.011468 158.363153 34.648874 -107.627414 -86.618756 -20.866674 15.841926 9.936204 -28.393997 55.985136 179.981673 75.748988 0.015079 -134.238184 12.539351 -11.455334 -12.980892 75.981741 131.968444 -46.024226 87.332173 -38.118141
-0.2602 57.102 0.7372 -6.562591 -22.938386 0.576321 -0.40351 15.226665 0.089756 -0.080599 -13.610888 18.458284 9.492288 26.135045 107.606761 -33.164263 7.719584 -78.606076 0.004208 -0.0 -4.1e-05 -0.001466 -0.0 0.000731 2.460365 -18.216331 -3.668914 60.96241 7.970961 -12.927347 124.441483 33.275305 10.3107 -33.116109 15.791331 13.837225 -164.697894 -2.371998 89.586063 -92.619711 7.691439 37.502081 -5.558652 8.439277 3.408881 -65.027606 48.301243 49.249016 -158.521955 -0.192334 142.14444 -163.754326 -6.250556 143.112483 0.000261 0.063924 0.019505 -154.879329 5.938088 171.069327 -12.837805 -24.809027 -12.208463 3.715896 2.097586 0.525502 0.273099 1.606791 -0.361143 -38.561544 29.701759 -44.970507 -30.452968 -57.909662 -110.054174 19.380163 63.992955 -11.41777 -93.028759 -51.083278 -40.500492 154.752742 -8.306885 -117.882932 -175.212563 -62.515607 -113.813537 162.177935 -24.738509 -117.651831 0.057221 0.167977 -0.031748 -168.035767 -64.09309 -133.239858 73.163304 -72.143691 90.197562 -14.719134 -0.031957 4.595415 -10.277535 33.656532 -8.858462 152.469068 27.361036 146.685357 179.988852 75.750072 0.009837 156.56133 36.05576 13.928092 55.325959 71.883347 -59.707481 -33.906827 -11.267941 -17.63564 -179.991179 75.749593 -0.009101 -135.363556 11.810671 63.928501 67.123618 26.846505 -144.00373 43.207935 58.449826 26.366064
-0.2912 57.048100000000005 0.8484 -6.60238 -23.157368 0.705916 -0.241543 10.385911 -175.793918 0.884596 8.792848 -165.667408 8.650032 28.910346 124.323057 -33.223834 17.224896 -92.069479 -0.004302 -0.0 0.002209 -0.004302 -0.0 0.002209 -155.537579 -3.733411 161.884726 138.47374 -16.432973 171.070048 175.03586 -12.312141 28.913978 -125.51861 41.792068 111.56296 -7.757241 7.439628 1.682163 -41.790056 24.509044 40.590408 -85.856806 41.979203 71.894654 -119.333185 42.816302 90.785425 10.083539 -31.592256 -3.251766 -5.07212 21.29779 4.439325 -71.925236 72.973969 89.771906 -95.304347 82.840381 104.351096 -146.205169 15.40529 -142.732353 2.365321 0.30784 -1.891652 -3.206274 -26.010368 5.10568 110.22223 -22.472425 -166.910179 -21.20879 -34.256663 110.021199 -156.643425 -31.170103 -142.257064 2.81448 2.753955 -0.498335 -27.409609 -41.918121 14.995635 131.826241 14.059217 -110.409179 -84.977479 -68.685827 -35.927793 10.975883 25.789842 -7.640275 17.26454 41.570045 -13.91739 0.021351 -1.724446 0.541285 -10.757229 -4.349108 0.608784 -26.969456 80.122986 -10.140668 -0.601529 -2.036368 1.576178 -0.000589 -0.000281 0.000758 -24.499371 -37.051173 142.898513 90.416232 -77.925094 174.466617 73.258958 48.030175 33.816276 0.003213 0.001969 0.001606 63.137013 -39.062976 -180.0 64.693785 -29.394053 -106.689354 -53.257266 -21.459115 23.122876
